<?xml version="1.0" encoding="UTF-8"?>
<svg version="1.1" xmlns="http://www.w3.org/2000/svg" width="1080" height="1080">
<path d="M0 0 C0.86368698 -0.00525696 1.72737396 -0.01051392 2.61723328 -0.01593018 C5.47612519 -0.02914898 8.33446166 -0.02038547 11.19335938 -0.01025391 C13.17728787 -0.0122741 15.16121565 -0.01518508 17.1451416 -0.01895142 C21.30467798 -0.02337732 25.46402121 -0.01693511 29.62353516 -0.00292969 C34.96040471 0.01416229 40.29682168 0.00432254 45.63367462 -0.01364708 C49.73084943 -0.0244777 53.82791659 -0.02104189 57.9250946 -0.0132637 C59.8931229 -0.0112597 61.8611609 -0.01372797 63.82917786 -0.02070236 C66.57778888 -0.02830494 69.32566275 -0.01672949 72.07421875 0 C73.2992939 -0.00910904 73.2992939 -0.00910904 74.54911804 -0.0184021 C80.04125049 0.04365715 80.04125049 0.04365715 82.24702168 1.5762434 C84.01490029 4.05924539 83.90652276 5.72408406 83.89787292 8.76017761 C83.90405891 10.4323661 83.90405891 10.4323661 83.91036987 12.13833618 C83.89958405 13.36184784 83.88879822 14.5853595 83.87768555 15.84594727 C83.87812363 17.13385666 83.87856171 18.42176605 83.87901306 19.748703 C83.87987479 23.28159576 83.86222061 26.81418376 83.84129119 30.34700561 C83.82255382 34.03855713 83.82077628 37.73011542 83.81721497 41.42170715 C83.80788583 48.41278667 83.78326038 55.40372566 83.7531665 62.39474326 C83.71964945 70.35352912 83.70314327 78.31232164 83.68808019 86.27116048 C83.65671151 102.64358382 83.60393423 119.01586578 83.53710938 135.38818359 C84.51029576 135.38533569 84.51029576 135.38533569 85.50314248 135.38243026 C124.08406447 135.27017465 162.66496515 135.18456736 201.24601782 135.13285695 C205.89399262 135.12660453 210.5419671 135.12013281 215.18994141 135.11352539 C216.57774515 135.11155806 216.57774515 135.11155806 217.99358533 135.10955099 C232.91104634 135.08788308 247.82840952 135.04850992 262.74581279 135.00241961 C278.08925992 134.95541363 293.43265635 134.92783763 308.77617252 134.91774112 C318.21936663 134.91093158 327.66228411 134.88954522 337.10539292 134.84860126 C343.60930594 134.82186355 350.11307912 134.81425142 356.61704291 134.82067671 C360.35148959 134.82383228 364.0854583 134.81952516 367.81981659 134.79215622 C404.24213328 134.53893079 438.83350547 141.44724413 472.53710938 155.38818359 C473.60662842 155.8208252 473.60662842 155.8208252 474.69775391 156.26220703 C499.53486109 166.34290836 522.59785986 181.15099174 542.28710938 199.32568359 C544.26500495 201.13875454 546.28907754 202.85857373 548.34960938 204.57568359 C586.99246577 238.48517806 609.40999238 289.04556272 620.91210938 338.13818359 C621.1631543 339.20931396 621.41419922 340.28044434 621.67285156 341.3840332 C622.73882906 346.12406496 623.60276688 350.74872937 624.07168579 355.58648682 C624.15950632 356.48598179 624.24732685 357.38547676 624.33780861 358.31222916 C624.40357786 358.99729412 624.46934711 359.68235909 624.53710938 360.38818359 C625.21463666 360.38541821 625.89216394 360.38265284 626.59022236 360.37980366 C643.06468207 360.31359336 659.53909973 360.26392722 676.01366138 360.23274708 C683.98059169 360.21726839 691.94743328 360.19615983 699.91430664 360.16186523 C706.85703629 360.13199343 713.79970169 360.11261588 720.74249381 360.10591811 C724.41976256 360.10200205 728.09684747 360.09277824 731.77405739 360.07099342 C735.87590364 360.04688933 739.9774289 360.04621216 744.0793457 360.04760742 C745.91461319 360.03142868 745.91461319 360.03142868 747.78695679 360.0149231 C748.90174911 360.01904709 750.01654144 360.02317108 751.16511536 360.02742004 C752.62108737 360.02327198 752.62108737 360.02327198 754.10647297 360.01904011 C756.53710938 360.38818359 756.53710938 360.38818359 758.34904957 361.65691662 C759.79466242 363.76349558 759.91404519 364.90746728 759.9180603 367.44921875 C759.92651978 368.27359436 759.93497925 369.09796997 759.94369507 369.94732666 C759.93762238 370.84820007 759.93154968 371.74907349 759.92529297 372.67724609 C759.93054993 373.62871521 759.93580688 374.58018433 759.94122314 375.56048584 C759.95444746 378.71155115 759.94567633 381.86211298 759.93554688 385.01318359 C759.93756691 387.19889422 759.94047775 389.38460419 759.94424438 391.5703125 C759.94867104 396.15354828 759.9422256 400.73660879 759.92822266 405.31982422 C759.91113072 411.20148672 759.92097005 417.08273856 759.93894005 422.96438599 C759.94976859 427.47846585 759.94633579 431.99244799 759.93855667 436.50653076 C759.9365521 438.67551726 759.93902292 440.84451256 759.94599533 443.01348877 C759.95359441 446.04227278 759.94202701 449.0703871 759.92529297 452.09912109 C759.93136566 452.99999451 759.93743835 453.90086792 759.94369507 454.82904053 C759.9352356 455.65341614 759.92677612 456.47779175 759.9180603 457.32714844 C759.91692923 458.0431723 759.91579815 458.75919617 759.9146328 459.49691772 C759.40524694 462.04877023 758.66208235 462.89635575 756.53710938 464.38818359 C754.13770771 464.75732708 754.13770771 464.75732708 751.24104309 464.74894714 C749.59409706 464.75513313 749.59409706 464.75513313 747.91387939 464.76144409 C746.70906921 464.75065826 745.50425903 464.73987244 744.26293945 464.72875977 C742.9945372 464.72919785 741.72613495 464.72963593 740.41929626 464.73008728 C736.94011885 464.73094896 733.46125095 464.7132956 729.98214555 464.69236541 C726.34664871 464.6736272 722.71114498 464.67185043 719.0756073 464.66828918 C712.19077464 464.65896029 705.30608468 464.63433517 698.4213149 464.60424072 C690.58344603 464.5707229 682.7455704 464.5542173 674.90764773 464.53915441 C658.78405137 464.50778628 642.66059858 464.45500948 626.53710938 464.38818359 C626.43817934 465.52396032 626.43817934 465.52396032 626.33725071 466.68268204 C626.24928699 467.67493664 626.16132326 468.66719124 626.07069397 469.68951416 C625.94082643 471.16560339 625.94082643 471.16560339 625.8083353 472.6715126 C625.31606144 477.60225841 624.14921722 482.33290003 622.97460938 487.13818359 C622.71139893 488.21801514 622.44818848 489.29784668 622.17700195 490.41040039 C611.26866683 533.74362739 589.45713222 572.27663771 558.53710938 604.38818359 C558.0353418 604.91186523 557.53357422 605.43554688 557.01660156 605.97509766 C550.25709245 612.99542384 543.23519512 619.38898574 535.53710938 625.38818359 C534.53035156 626.18869141 533.52359375 626.98919922 532.48632812 627.81396484 C497.94902275 655.08138063 456.01391114 674.14260935 412.53710938 681.38818359 C411.55801857 681.56013685 410.57892776 681.73209011 409.57016754 681.90925407 C395.85418916 683.97787843 382.05404712 683.65993052 368.21810365 683.62031484 C364.38876534 683.61159001 360.55943274 683.61460681 356.73008728 683.61611938 C350.11307647 683.61716259 343.49610543 683.61094548 336.87910461 683.59964371 C327.31231325 683.58331446 317.7455409 683.57817315 308.1787371 683.57566772 C292.65316413 683.57130221 277.12761229 683.55802429 261.60205078 683.5390625 C246.53011174 683.52067399 231.45817847 683.50653207 216.38623047 683.49804688 C214.99014141 683.4972587 214.99014141 683.4972587 213.56584853 683.49645461 C208.89616441 683.49384433 204.22648026 683.49131696 199.55679607 683.4888308 C160.88355238 683.46813394 122.21033228 683.43293975 83.53710938 683.38818359 C83.53987475 683.96263623 83.54264013 684.53708887 83.54548931 685.12894917 C83.61171188 699.09983652 83.66118032 713.07069643 83.69254589 727.04170704 C83.70802179 733.7979629 83.72912495 740.55411407 83.76342773 747.31030273 C83.79649673 753.82658689 83.81394732 760.34280298 83.8217411 766.8591671 C83.82729751 769.34914554 83.83814733 771.83911781 83.85429955 774.32905006 C83.87597806 777.80828506 83.87908027 781.2870661 83.87768555 784.76635742 C83.89386429 786.32110275 83.89386429 786.32110275 83.91036987 787.90725708 C83.90624588 788.85376633 83.90212189 789.80027557 83.89787292 790.77546692 C83.9006383 791.59862805 83.90340368 792.42178919 83.90625286 793.2698946 C83.4415217 795.93670289 82.71681984 796.81321148 80.53710938 798.38818359 C77.64469485 798.68443561 74.96758454 798.79788079 72.07421875 798.77636719 C71.21053177 798.78162415 70.34684479 798.7868811 69.45698547 798.79229736 C66.59809356 798.80551617 63.73975709 798.79675265 60.88085938 798.78662109 C58.89693088 798.78864129 56.9130031 798.79155227 54.92907715 798.7953186 C50.76954077 798.79974451 46.61019754 798.7933023 42.45068359 798.77929688 C37.11381404 798.76220489 31.77739707 798.77204465 26.44054413 798.79001427 C22.34336932 798.80084489 18.24630216 798.79740907 14.14912415 798.78963089 C12.18109585 798.78762689 10.21305785 798.79009515 8.24504089 798.79706955 C5.49642987 798.80467213 2.748556 798.79309668 0 798.77636719 C-0.81671677 798.78243988 -1.63343353 798.78851257 -2.47489929 798.79476929 C-7.98637974 798.73249142 -7.98637974 798.73249142 -10.17280293 797.15266895 C-11.8332962 794.88157058 -11.83305988 793.57523051 -11.82365417 790.77546692 C-11.82984016 789.35570305 -11.82984016 789.35570305 -11.83615112 787.90725708 C-11.8253653 786.87076019 -11.81457947 785.83426331 -11.8034668 784.76635742 C-11.80390488 783.67351944 -11.80434296 782.58068146 -11.80479431 781.45472717 C-11.80270068 777.83470935 -11.77934194 774.21515198 -11.75585938 770.59521484 C-11.75026548 768.08843743 -11.74599441 765.58165674 -11.74299622 763.07487488 C-11.73270373 757.14626703 -11.70904832 751.21780745 -11.67894775 745.28927583 C-11.64213339 737.87761311 -11.62601468 730.46592994 -11.609375 723.05419922 C-11.57718172 709.83210972 -11.52654038 696.61015714 -11.46289062 683.38818359 C-12.27956868 683.39094897 -13.09624674 683.39371435 -13.93767262 683.39656353 C-33.79193611 683.46276211 -53.64618064 683.51243429 -73.5005312 683.54362011 C-83.10187552 683.55910146 -92.70314626 683.58021514 -102.30444336 683.61450195 C-110.67109115 683.64436557 -119.03768566 683.66374937 -127.40438527 683.67044908 C-131.83617349 683.67436651 -136.26780927 683.68359918 -140.69954872 683.70537376 C-144.86833546 683.72569101 -149.03690652 683.7320271 -153.20573807 683.72750664 C-154.73803185 683.72833398 -156.27033263 683.73432802 -157.80258369 683.74580002 C-159.89061393 683.76067019 -161.97782399 683.75715801 -164.06587219 683.74894714 C-165.23562749 683.75171252 -166.40538279 683.7544779 -167.61058521 683.75732708 C-170.46289062 683.38818359 -170.46289062 683.38818359 -172.33889484 682.11945057 C-173.70437869 680.01622462 -173.83989509 678.82544083 -173.84384155 676.32714844 C-173.85653076 675.09058502 -173.85653076 675.09058502 -173.86947632 673.82904053 C-173.86340363 672.92816711 -173.85733093 672.0272937 -173.85107422 671.09912109 C-173.85633118 670.14765198 -173.86158813 669.19618286 -173.86700439 668.21588135 C-173.88022871 665.06481604 -173.87145758 661.91425421 -173.86132812 658.76318359 C-173.86334816 656.57747297 -173.866259 654.391763 -173.87002563 652.20605469 C-173.87445229 647.62281891 -173.86800685 643.0397584 -173.85400391 638.45654297 C-173.83691197 632.57488047 -173.8467513 626.69362863 -173.8647213 620.8119812 C-173.87554984 616.29790133 -173.87211704 611.7839192 -173.86433792 607.26983643 C-173.86233335 605.10084993 -173.86480417 602.93185463 -173.87177658 600.76287842 C-173.87937566 597.73409441 -173.86780826 594.70598009 -173.85107422 591.67724609 C-173.86018326 590.32593597 -173.86018326 590.32593597 -173.86947632 588.94732666 C-173.86101685 588.12295105 -173.85255737 587.29857544 -173.84384155 586.44921875 C-173.84271048 585.73319489 -173.8415794 585.01717102 -173.84041405 584.27944946 C-173.46289062 582.38818359 -173.46289062 582.38818359 -170.46289062 579.38818359 C-117.99289063 579.38818359 -65.52289063 579.38818359 -11.46289062 579.38818359 C-11.46289062 467.18818359 -11.46289062 354.98818359 -11.46289062 239.38818359 C-63.93289062 239.38818359 -116.40289062 239.38818359 -170.46289062 239.38818359 C-173.83801906 236.01305516 -173.83801906 236.01305516 -173.84384155 232.32714844 C-173.85230103 231.50277283 -173.8607605 230.67839722 -173.86947632 229.82904053 C-173.86340363 228.92816711 -173.85733093 228.0272937 -173.85107422 227.09912109 C-173.85633118 226.14765198 -173.86158813 225.19618286 -173.86700439 224.21588135 C-173.88022871 221.06481604 -173.87145758 217.91425421 -173.86132812 214.76318359 C-173.86334816 212.57747297 -173.866259 210.391763 -173.87002563 208.20605469 C-173.87445229 203.62281891 -173.86800685 199.0397584 -173.85400391 194.45654297 C-173.83691197 188.57488047 -173.8467513 182.69362863 -173.8647213 176.8119812 C-173.87554984 172.29790133 -173.87211704 167.7839192 -173.86433792 163.26983643 C-173.86233335 161.10084993 -173.86480417 158.93185463 -173.87177658 156.76287842 C-173.87937566 153.73409441 -173.86780826 150.70598009 -173.85107422 147.67724609 C-173.86018326 146.32593597 -173.86018326 146.32593597 -173.86947632 144.94732666 C-173.86101685 144.12295105 -173.85255737 143.29857544 -173.84384155 142.44921875 C-173.84271048 141.73319489 -173.8415794 141.01717102 -173.84041405 140.27944946 C-173.32294351 137.68709545 -172.65672461 136.87186343 -170.46289062 135.38818359 C-167.61058521 135.01904011 -167.61058521 135.01904011 -164.06587219 135.02742004 C-163.41402409 135.02485677 -162.76217599 135.02229349 -162.09057492 135.01965255 C-159.90233687 135.01470385 -157.714786 135.03122451 -155.52661133 135.04760742 C-153.95968645 135.04845346 -152.39276037 135.047979 -150.82583618 135.04627991 C-146.5677814 135.04541763 -142.30997911 135.06308085 -138.05198312 135.08400178 C-133.60369404 135.10272995 -129.15539945 135.10451597 -124.70707703 135.108078 C-116.28166237 135.11740984 -107.8563642 135.14203899 -99.43100089 135.17212647 C-89.83983639 135.2056351 -80.24866639 135.22214758 -70.65745795 135.23721278 C-50.92587043 135.26858757 -31.19438786 135.32137016 -11.46289062 135.38818359 C-11.465656 134.71065631 -11.46842138 134.03312902 -11.47127056 133.33507061 C-11.53748086 116.8606109 -11.587147 100.38619324 -11.61832714 83.91163158 C-11.63380583 75.94470127 -11.65491439 67.97785969 -11.68920898 60.01098633 C-11.71908079 53.06825668 -11.73845834 46.12559128 -11.74515611 39.18279916 C-11.74907217 35.50553041 -11.75829597 31.82844549 -11.7800808 28.15123558 C-11.80418489 24.04938933 -11.80486206 19.94786407 -11.8034668 15.84594727 C-11.81425262 14.62243561 -11.82503845 13.39892395 -11.83615112 12.13833618 C-11.83202713 11.02354385 -11.82790314 9.90875153 -11.82365417 8.76017761 C-11.82641955 7.7895296 -11.82918493 6.81888159 -11.83203411 5.81882 C-11.46289062 3.38818359 -11.46289062 3.38818359 -10.17280293 1.5762434 C-7.15811927 -0.51838126 -3.54400453 -0.02635143 0 0 Z M83.53710938 239.38818359 C83.53710938 351.58818359 83.53710938 463.78818359 83.53710938 579.38818359 C181.21710938 579.38818359 278.89710938 579.38818359 379.53710938 579.38818359 C379.53710938 578.72818359 379.53710938 578.06818359 379.53710938 577.38818359 C380.45242432 577.31796997 380.45242432 577.31796997 381.38623047 577.24633789 C418.29031808 574.04082099 451.56648314 554.88238467 477.53710938 529.38818359 C478.15175049 528.78603027 478.7663916 528.18387695 479.3996582 527.56347656 C509.71879916 497.58617497 525.26562774 454.88876217 525.55566406 412.68847656 C525.13063966 370.50874028 509.77941495 328.90310858 481.98242188 297.19287109 C480.3770955 295.35161816 478.82685437 293.46055517 477.34179688 291.52099609 C476.74625 290.81716797 476.15070313 290.11333984 475.53710938 289.38818359 C474.87710937 289.38818359 474.21710938 289.38818359 473.53710938 289.38818359 C473.53710938 288.72818359 473.53710938 288.06818359 473.53710938 287.38818359 C471.857511 285.61146662 471.857511 285.61146662 469.72460938 283.82568359 C468.66306641 282.895625 468.66306641 282.895625 467.58007812 281.94677734 C465.5243747 280.20393606 465.5243747 280.20393606 462.53710938 279.38818359 C462.53710938 278.72818359 462.53710938 278.06818359 462.53710938 277.38818359 C461.18964206 276.11867359 461.18964206 276.11867359 459.38085938 274.88427734 C458.35448364 274.15096191 458.35448364 274.15096191 457.30737305 273.40283203 C456.55818604 272.88237305 455.80899902 272.36191406 455.03710938 271.82568359 C454.26536377 271.2884668 453.49361816 270.75125 452.69848633 270.19775391 C439.77170047 261.32567999 426.57699825 254.80337856 411.90136719 249.30371094 C410.39191984 248.71919756 408.89426706 248.10255807 407.41503906 247.4453125 C389.43995792 239.58367495 371.57929603 238.66028801 352.20402092 238.80781995 C348.53485187 238.82997574 344.86570901 238.82232605 341.19649124 238.81873035 C334.10449089 238.8160939 327.01281234 238.83896475 319.92089422 238.871237 C311.70130163 238.90750693 303.48189705 238.91122535 295.26220703 238.91516113 C273.60379085 238.94131864 251.94544514 239.01112496 230.28710938 239.07568359 C181.85960937 239.17880859 133.43210937 239.28193359 83.53710938 239.38818359 Z " fill="#FFFFFF" transform="translate(260.462890625,131.61181640625)"/>
<path d="M0 0 C1.18335938 0.4125 2.36671875 0.825 3.5859375 1.25 C23.91302886 9.14750128 40.68676086 25.05101089 49.85546875 44.83984375 C51.44078122 48.49992567 52.74622247 52.21384014 54 56 C54.33902344 56.96292969 54.67804688 57.92585937 55.02734375 58.91796875 C59.80614401 75.23636041 58.64866732 95.07781898 53 111 C52.38125 112.77503906 52.38125 112.77503906 51.75 114.5859375 C43.85249872 134.91302886 27.94898911 151.68676086 8.16015625 160.85546875 C4.50007433 162.44078122 0.78615986 163.74622247 -3 165 C-3.96292969 165.33902344 -4.92585937 165.67804688 -5.91796875 166.02734375 C-22.2699924 170.81599305 -42.03523786 169.5968419 -58 164 C-59.05960937 163.63777344 -60.11921875 163.27554688 -61.2109375 162.90234375 C-73.10410516 158.39272362 -82.98815596 150.85429432 -92 142 C-92.61359375 141.39929688 -93.2271875 140.79859375 -93.859375 140.1796875 C-111.78964277 121.18018358 -115.89895412 97.31222703 -115.18359375 72.16015625 C-114.79213587 65.42208344 -113.23143954 59.36508984 -111 53 C-110.63777344 51.94039063 -110.27554687 50.88078125 -109.90234375 49.7890625 C-105.39272362 37.89589484 -97.85429432 28.01184404 -89 19 C-88.39929688 18.38640625 -87.79859375 17.7728125 -87.1796875 17.140625 C-64.64542476 -4.12547577 -28.86296809 -10.23963391 0 0 Z " fill="#F60C05" transform="translate(527,459)"/>
</svg>
