<svg xmlns="http://www.w3.org/2000/svg" viewBox="0 0 32 32" fill="none">
  <!-- Decible Favicon - D mark with recording dot -->
  <rect x="7" y="1.6" width="2.24" height="28.8" rx="1" fill="#111827"/>
  <rect x="1.6" y="8.96" width="7.04" height="2.24" rx="1" fill="#111827"/>
  <rect x="1.6" y="20.8" width="7.04" height="2.24" rx="1" fill="#111827"/>
  <rect x="23.36" y="8.96" width="7.04" height="2.24" rx="1" fill="#111827"/>
  <rect x="23.36" y="20.8" width="7.04" height="2.24" rx="1" fill="#111827"/>
  <path d="M9.28 5.76 L9.28 26.24 L16.64 26.24 C24 26.24 28.8 21.44 28.8 16 C28.8 10.56 24 5.76 16.64 5.76 L9.28 5.76 Z M11.52 8 L16.64 8 C22.4 8 26.56 11.52 26.56 16 C26.56 20.48 22.4 24 16.64 24 L11.52 24 L11.52 8 Z" fill="#111827"/>
  <circle cx="18.56" cy="16" r="4.48" fill="#EF4444"/>
</svg>