<?xml version="1.0" encoding="UTF-8"?>
<svg version="1.1" xmlns="http://www.w3.org/2000/svg" viewBox="0 0 1080 1080">
<!-- Decible Logo - Your original design with blue background removed -->
<!-- White D shape - for dark backgrounds -->
<path d="M0 0 C0.83135971 -0.00700928 1.66271942 -0.01401855 2.51927185 -0.02124023 C5.26587384 -0.03883692 8.01144427 -0.02719074 10.75805664 -0.01367188 C12.66850482 -0.01636657 14.57895166 -0.0202488 16.48939514 -0.02526855 C20.49338844 -0.03116608 24.49702476 -0.02259341 28.50097656 -0.00390625 C33.63036788 0.018868 38.75892134 0.0057715 43.88828182 -0.01819611 C47.83372798 -0.03266037 51.778976 -0.02804493 55.72442818 -0.01768494 C57.61544456 -0.01501859 59.50647899 -0.01828417 61.39747429 -0.02760315 C64.04281007 -0.0377774 66.68679585 -0.02225534 69.33203125 0 C70.50188568 -0.01214539 70.50188568 -0.01214539 71.69537354 -0.02453613 C74.94544979 0.02604766 77.47787766 0.40055233 80.43518925 1.76935577 C84.22105138 6.30182529 83.38319854 11.28251454 83.29833984 16.99707031 C83.29906998 18.27537216 83.29980011 19.55367401 83.30055237 20.87071228 C83.3019868 24.3727817 83.27259434 27.87399461 83.23768258 31.37586498 C83.20642269 35.03668562 83.20348866 38.69752597 83.19755554 42.35845947 C83.18201589 49.28942042 83.14098621 56.21998696 83.09080809 63.15077424 C83.03491805 71.04183399 83.00742906 78.93291259 82.98233092 86.824121 C82.93007011 103.05550425 82.84212598 119.28649085 82.73071289 135.51757812 C83.37277618 135.51567952 84.01483948 135.51378092 84.67635924 135.51182479 C122.86487356 135.39954716 161.05336316 135.31395092 199.2420092 135.26225148 C203.84363141 135.25599913 208.44525329 135.2495274 213.046875 135.24291992 C213.96284334 135.24160837 214.87881168 135.24029682 215.82253664 135.23894552 C230.58735929 135.21728292 245.35208301 135.17791281 260.11684728 135.13181414 C275.30548748 135.08479318 290.49407643 135.05722905 305.68278641 135.04713565 C315.02924416 135.04032915 324.37542217 135.01895997 333.72179364 134.97799579 C340.16077095 134.95123942 346.59960703 134.94364999 353.03863568 134.95007124 C356.73472826 134.95322403 360.43033783 134.94895383 364.12634087 134.92155075 C434.32348235 134.42731476 502.22534925 160.88038923 552.54321289 210.08007812 C557.64024545 215.28174185 562.21748962 220.80918647 566.73071289 226.51757812 C567.38555664 227.30519531 568.04040039 228.0928125 568.71508789 228.90429688 C597.99575659 264.333906 615.35670749 309.76787069 622.78187561 354.76725769 C622.96011399 355.8449602 623.13835238 356.92266272 623.32199192 358.03302288 C623.45686984 358.85292611 623.59174776 359.67282934 623.73071289 360.51757812 C624.39608912 360.51389095 625.06146536 360.51020378 625.74700451 360.50640488 C641.93841276 360.41806062 658.12974465 360.35187192 674.3213377 360.31032944 C682.15148767 360.28970571 689.98147674 360.26158891 697.81152344 360.21582031 C704.63634547 360.17594653 711.46105097 360.15014392 718.28598624 360.14122415 C721.89966845 360.13601024 725.51301729 360.12376017 729.12659264 360.0946579 C733.1610428 360.06242974 737.19491372 360.06161904 741.22949219 360.06347656 C742.42711182 360.04909546 743.62473145 360.03471436 744.85864258 360.01989746 C749.3877425 360.04252276 752.81414164 360.10469276 756.97160339 361.97749329 C759.60556711 365.78083317 759.43064191 369.08147388 759.37768555 373.61303711 C759.38644714 374.53217896 759.39520874 375.4513208 759.40423584 376.39831543 C759.42624573 379.43724756 759.41167002 382.47472489 759.39477539 385.51367188 C759.39814335 387.62590311 759.4029958 389.73813246 759.40927124 391.85035706 C759.41664498 396.2781112 759.40592165 400.7053611 759.38256836 405.13305664 C759.35409814 410.80737477 759.37047087 416.48050962 759.40043068 422.1547842 C759.41850474 426.51716515 759.41274473 430.87926593 759.39979172 435.24165535 C759.39645712 437.3336304 759.40054664 439.42563091 759.41218948 441.51757622 C759.42489769 444.44331002 759.40552029 447.36713304 759.37768555 450.29272461 C759.3878067 451.15678421 759.39792786 452.02084381 759.40835571 452.91108704 C759.33873726 456.86347567 758.98029139 459.08751963 756.96586609 462.55865479 C751.91437576 465.61739164 747.11667463 465.17287888 741.32128906 465.08520508 C740.06234833 465.08593521 738.80340759 465.08666534 737.50631714 465.0874176 C734.06214938 465.08885006 730.61885529 465.05948968 727.17489028 465.02454782 C723.57280029 464.99325497 719.97068944 464.9903513 716.3684845 464.98442078 C709.55088449 464.9688908 702.73368618 464.92787426 695.91626292 464.87767333 C688.15335273 464.82175314 680.39042318 464.79428671 672.62736166 464.76919615 C656.66157956 464.71695728 640.69619806 464.62903201 624.73071289 464.51757812 C624.63507553 465.84746765 624.63507553 465.84746765 624.5375061 467.20422363 C624.45124969 468.37046265 624.36499329 469.53670166 624.27612305 470.73828125 C624.14954819 472.47035828 624.14954819 472.47035828 624.02041626 474.23742676 C623.66584229 478.25207219 623.01884243 482.09721493 622.10571289 486.01757812 C621.93386475 486.76547607 621.7620166 487.51337402 621.58496094 488.28393555 C613.08823529 523.67420125 596.26976086 558.69870325 572.73071289 586.51757812 C571.97145508 587.45988281 571.21219727 588.4021875 570.42993164 589.37304688 C558.48004221 604.07792055 544.96446473 617.26431822 529.73071289 628.51757812 C528.8090332 629.24589844 527.88735352 629.97421875 526.93774414 630.72460938 C512.76470171 641.81916304 497.03261524 650.94638482 480.73071289 658.51757812 C480.0663623 658.83500977 479.40201172 659.15244141 478.7175293 659.47949219 C460.78851659 668.03410758 442.05198981 674.60302962 422.66821289 678.95507812 C421.1021228 679.30723389 421.1021228 679.30723389 419.50439453 679.66650391 C401.18945019 683.53721017 383.1877985 683.80368245 364.54927051 683.74970937 C360.75744166 683.74097481 356.96561845 683.74400201 353.17378235 683.74551392 C346.62336007 683.74655652 340.07297801 683.74034579 333.52256584 683.72903824 C324.05207772 683.71270069 314.58160881 683.70756684 305.11110813 683.70506226 C289.74137881 683.70069802 274.37167086 683.68742363 259.00195312 683.66845703 C244.08235785 683.65006517 229.1627684 683.6359249 214.24316406 683.62744141 C213.32166173 683.62691596 212.4001594 683.62639051 211.45073276 683.62584914 C206.82727149 683.62323884 202.20381018 683.62071148 197.58034885 683.61822534 C159.29712191 683.59753248 121.01391882 683.56234184 82.73071289 683.51757812 C82.73532186 684.07987971 82.73993082 684.6421813 82.74467945 685.22152233 C82.85514496 698.90931562 82.93754326 712.59703072 82.98977375 726.28517437 C83.01588049 732.90472191 83.05129954 739.52394802 83.10791016 746.14331055 C83.1621895 752.52996294 83.19212531 758.91630593 83.20509911 765.30317116 C83.21434616 767.74128911 83.2324033 770.1793899 83.25936317 772.61737633 C83.29559754 776.02938972 83.30066034 779.44012046 83.29833984 782.85229492 C83.31631622 783.86289978 83.3342926 784.87350464 83.35281372 785.91473389 C83.31847873 790.57259665 83.25614058 792.80185528 80.43518925 796.64447594 C76.78644807 799.1715696 73.61959078 799.22019239 69.33203125 799.16455078 C68.49891922 799.17331238 67.66580719 799.18207397 66.80744934 799.19110107 C64.06128435 799.21305826 61.31673718 799.19855737 58.57055664 799.18164062 C56.65914095 799.18500951 54.74772734 799.18986274 52.83631897 799.19613647 C48.83403083 799.20350253 44.83230126 799.19280973 40.83007812 799.16943359 C35.6993341 799.14092663 30.56989665 799.15736357 25.4392004 799.18729591 C21.49376063 799.20535966 17.54863093 799.19961544 13.60318184 799.18665695 C11.71133838 799.18332139 9.81946677 799.18741532 7.92765617 799.19905472 C5.28434483 799.21175059 2.64315332 799.19240665 0 799.16455078 C-0.78192719 799.17467194 -1.56385437 799.18479309 -2.36947632 799.19522095 C-5.8838917 799.12658146 -7.92562984 798.77635943 -10.75773621 796.64372253 C-12.9833158 792.04084532 -12.79525679 787.90269084 -12.72338867 782.85229492 C-12.72397278 781.77867203 -12.72455688 780.70504913 -12.72515869 779.59889221 C-12.72237471 776.05453017 -12.69126637 772.5110118 -12.65991211 768.96679688 C-12.65245088 766.50772053 -12.64675739 764.04863825 -12.64276123 761.58955383 C-12.62749582 755.12034664 -12.5882055 748.65149922 -12.54394531 742.18243408 C-12.50301259 735.58000556 -12.48475444 728.97751886 -12.46459961 722.375 C-12.42171271 709.42237264 -12.3542198 696.46999452 -12.26928711 683.51757812 C-13.07988964 683.52218709 -13.89049217 683.52679605 -14.72565842 683.53154469 C-34.43836343 683.64190808 -54.15101529 683.72467828 -73.86396408 683.77663898 C-83.39697099 683.80243394 -92.92977183 683.83760906 -102.46264648 683.89477539 C-110.7703411 683.94457091 -119.07788651 683.97685974 -127.38572621 683.9880206 C-131.78580903 683.99454593 -136.18546493 684.00990875 -140.58541107 684.04622841 C-144.72557608 684.0801273 -148.86513771 684.09064363 -153.00542831 684.08311653 C-154.52603559 684.08449384 -156.04666271 684.09446323 -157.56715012 684.1136055 C-159.64217011 684.13845105 -161.71490626 684.13251815 -163.78997803 684.11885071 C-164.95143719 684.12345967 -166.11289635 684.12806864 -167.30955124 684.13281727 C-170.26928711 683.51757812 -170.26928711 683.51757812 -172.64249802 681.2413063 C-174.22870153 678.58553044 -174.77062311 677.35900585 -174.77722168 674.33665466 C-174.79414063 673.13599869 -174.79414063 673.13599869 -174.81140137 671.91108704 C-174.79925598 670.61499763 -174.79925598 670.61499763 -174.78686523 669.29272461 C-174.79387451 668.37183044 -174.80088379 667.45093628 -174.80810547 666.50213623 C-174.82568327 663.46400634 -174.81406426 660.42681092 -174.80053711 657.38867188 C-174.80323185 655.27547527 -174.80711412 653.16227988 -174.81213379 651.04908752 C-174.81802836 646.62318094 -174.80946613 642.19759751 -174.79077148 637.77172852 C-174.76796824 632.09636727 -174.78111431 626.42176208 -174.80506134 620.74642849 C-174.81950837 616.38412264 -174.81491855 612.02199636 -174.80455017 607.65968513 C-174.80188059 605.56688409 -174.80516075 603.47406677 -174.81446838 601.38128471 C-174.82461729 598.45809537 -174.80915646 595.53613482 -174.78686523 592.61303711 C-174.79496216 591.74695328 -174.80305908 590.88086945 -174.81140137 589.98854065 C-174.80012207 589.19092316 -174.78884277 588.39330566 -174.77722168 587.57151794 C-174.77571358 586.88113654 -174.77420547 586.19075514 -174.77265167 585.47945309 C-174.26928711 583.51757812 -174.26928711 583.51757812 -170.26928711 579.51757812 C-118.12928711 579.51757812 -65.98928711 579.51757812 -12.26928711 579.51757812 C-12.26928711 467.31757812 -12.26928711 355.11757813 -12.26928711 239.51757812 C-64.40928711 239.51757812 -116.54928711 239.51757812 -170.26928711 239.51757812 C-174.76945866 233.89236369 -174.76945866 233.89236369 -174.77722168 230.33665466 C-174.78850098 229.53621735 -174.79978027 228.73578003 -174.81140137 227.91108704 C-174.80330444 227.04702744 -174.79520752 226.18296783 -174.78686523 225.29272461 C-174.79387451 224.37183044 -174.80088379 223.45093628 -174.80810547 222.50213623 C-174.82568327 219.46400634 -174.81406426 216.42681092 -174.80053711 213.38867188 C-174.80323185 211.27547527 -174.80711412 209.16227988 -174.81213379 207.04908752 C-174.81802836 202.62318094 -174.80946613 198.19759751 -174.79077148 193.77172852 C-174.76796824 188.09636727 -174.78111431 182.42176208 -174.80506134 176.74642849 C-174.81950837 172.38412264 -174.81491855 168.02199636 -174.80455017 163.65968513 C-174.80188059 161.56688409 -174.80516075 159.47406677 -174.81446838 157.38128471 C-174.82461729 154.45809537 -174.80915646 151.53613482 -174.78686523 148.61303711 C-174.79496216 147.74695328 -174.80305908 146.88086945 -174.81140137 145.98854065 C-174.80012207 145.19092316 -174.78884277 144.39330566 -174.77722168 143.57151794 C-174.77571358 142.88113654 -174.77420547 142.19075514 -174.77265167 141.47945309 C-174.00941346 138.50471459 -172.7088553 137.34394856 -170.26928711 135.51757812 C-167.30955124 135.02538681 -167.30955124 135.02538681 -163.78997803 135.03656006 C-163.14135906 135.03314236 -162.49274008 135.02972466 -161.82446599 135.02620339 C-159.65295287 135.01961922 -157.48267834 135.041607 -155.3112793 135.06347656 C-153.75405913 135.06460494 -152.19683684 135.06397138 -150.63961792 135.06170654 C-146.41253064 135.06055806 -142.18589662 135.08408884 -137.95891476 135.11200237 C-133.5413384 135.13699377 -129.12375186 135.13935624 -124.70611572 135.144104 C-116.34089715 135.15654045 -107.97588748 135.18937106 -99.61076093 135.22950196 C-90.08729967 135.2741989 -80.56382847 135.29620148 -71.04028845 135.3162837 C-51.44983804 135.35810313 -31.85957573 135.42846816 -12.26928711 135.51757812 C-12.27297428 134.84612637 -12.27666145 134.17467461 -12.28046036 133.48287582 C-12.36877236 117.1499496 -12.43497759 100.81709894 -12.4765358 84.48398972 C-12.4971669 76.5854307 -12.52529777 68.68703099 -12.57104492 60.78857422 C-12.61089615 53.90479815 -12.63671594 47.02113745 -12.64564109 40.13724923 C-12.65085882 36.49174232 -12.66313319 32.84656545 -12.69220734 29.20116425 C-12.72439064 25.13298358 -12.72524764 21.06537782 -12.72338867 16.99707031 C-12.73776978 15.78650467 -12.75215088 14.57593903 -12.76696777 13.32868958 C-12.76146912 12.22093674 -12.75597046 11.1131839 -12.75030518 9.97186279 C-12.75399235 9.00951092 -12.75767952 8.04715904 -12.76147842 7.05564499 C-11.41316905 0.10286211 -6.02405642 -0.06237963 0 0 Z " fill="#FEFEFE" transform="translate(261.269287109375,131.482421875)"/>
<!-- Inner D cutout - transparent to show through -->
<path d="M0 0 C49.95375 -0.020625 99.9075 -0.04125 151.375 -0.0625 C175.07578369 -0.07615601 175.07578369 -0.07615601 199.25537109 -0.09008789 C218.47973633 -0.09460449 218.47973633 -0.09460449 227.4659729 -0.09544373 C233.7717221 -0.09637921 240.07746252 -0.10005979 246.38320923 -0.10557556 C253.64753244 -0.11192048 260.91184718 -0.11484075 268.17617319 -0.11344495 C271.89579779 -0.11283996 275.61540343 -0.11382944 279.3350246 -0.11921513 C283.30883679 -0.12493419 287.28262333 -0.12300661 291.25643921 -0.12025452 C292.42923746 -0.12316718 293.60203571 -0.12607985 294.81037331 -0.12908077 C295.87015766 -0.1270899 296.92994202 -0.12509903 298.02184105 -0.12304783 C298.94152369 -0.12342755 299.86120633 -0.12380727 300.80875814 -0.1241985 C303 0 303 0 305 1 C307.00372297 1.21257985 309.00823052 1.41970079 311.015625 1.59423828 C343.21456098 4.42303631 371.38654852 16.66092527 395 39 C395.81210937 39.74765625 396.62421875 40.4953125 397.4609375 41.265625 C427.22659393 69.62281188 440.92655104 112.24420909 442.07080078 152.49023438 C443.23699271 205.68426625 426.61939535 254.36581891 391 294 C390.09701172 295.01320313 390.09701172 295.01320313 389.17578125 296.046875 C366.81861699 319.69929059 334.64901949 333.8786802 303 339 C301.82170654 339.2604913 301.82170654 339.2604913 300.61960918 339.52624506 C297.92803952 340.01301402 295.46428938 340.12419684 292.73078442 340.12304783 C291.68244993 340.1250387 290.63411545 340.12702957 289.55401325 340.12908077 C288.40940223 340.12616811 287.2647912 340.12325544 286.085495 340.12025452 C284.86727051 340.12111053 283.64904602 340.12196655 282.39390564 340.12284851 C279.00891719 340.124216 275.62398646 340.12107848 272.23900495 340.11607273 C268.5340281 340.11170761 264.82905271 340.11316724 261.12407398 340.11389065 C253.93130539 340.11442244 246.73854928 340.10980385 239.5457839 340.10338932 C231.22636283 340.096192 222.90694928 340.09539472 214.58752441 340.09460449 C192.62084763 340.08935321 170.65417363 340.07539211 148.6875 340.0625 C75.0871875 340.0315625 75.0871875 340.0315625 0 340 C0 227.8 0 115.6 0 0 Z " fill="transparent" transform="translate(344,371)"/>
<!-- Red recording dot -->
<path d="M0 0 C4.26002984 3.3967059 8.14784157 7.15344879 12 11 C12.66902344 11.65742188 13.33804688 12.31484375 14.02734375 12.9921875 C29.6994806 29.55276749 35.81819267 52.48443158 35.28515625 74.6796875 C34.44777884 94.51747369 26.02170989 113.19713201 13 128 C12.00033203 129.14275391 12.00033203 129.14275391 10.98046875 130.30859375 C-4.0941687 146.44600713 -26.66567685 155.77854601 -48.57470703 156.59667969 C-71.2373729 156.81608123 -92.17155847 149.4185721 -109 134 C-109.75410156 133.33742188 -110.50820313 132.67484375 -111.28515625 131.9921875 C-120.70950341 123.23061604 -127.30791811 111.90638961 -132 100 C-132.29519531 99.25492188 -132.59039062 98.50984375 -132.89453125 97.7421875 C-140.27715181 77.44907285 -138.96686458 53.88370941 -129.9453125 34.38671875 C-125.90502941 26.19058892 -121.19061706 18.75668516 -115 12 C-114.33742188 11.24589844 -113.67484375 10.49179687 -112.9921875 9.71484375 C-83.47326231 -22.03706287 -34.72107427 -23.94092185 0 0 Z " fill="#F50C05" transform="translate(549,471)"/>
</svg>
